# Blender v3.2.1 OBJ File: 'DungeonDice-Dice-Assembly_2022-07-16.blend'
# www.blender.org
mtllib D20_2022-07-16.mtl
o D20_Icosphere
v -0.038573 -0.963576 0.028025
v -0.038573 -0.963576 -0.028025
v 0.014734 -0.963576 -0.045346
v 0.047680 -0.963576 0.000000
v 0.014734 -0.963576 0.045346
v -0.040904 -0.967348 0.000000
v 0.000000 -0.982367 0.000000
v -0.012640 -0.967348 -0.038902
v 0.033093 -0.967348 -0.024043
v 0.033093 -0.967348 0.024043
v -0.012640 -0.967348 0.038902
v 0.699760 -0.465427 0.473759
v 0.729228 -0.417748 0.473759
v 0.714494 -0.388280 0.519104
v 0.675921 -0.417748 0.547129
v 0.666815 -0.465427 0.519104
v 0.718266 -0.443918 0.473759
v 0.710841 -0.439329 0.516450
v 0.726078 -0.403014 0.497802
v 0.697814 -0.403014 0.536704
v 0.672533 -0.443918 0.536704
v 0.685174 -0.469199 0.497802
v -0.287641 -0.465427 0.794590
v -0.234334 -0.465427 0.811910
v -0.225228 -0.417748 0.839935
v -0.272907 -0.388279 0.839935
v -0.311481 -0.417748 0.811910
v -0.261708 -0.469199 0.805467
v -0.271512 -0.439329 0.835641
v -0.228616 -0.443918 0.829510
v -0.249068 -0.403013 0.844369
v -0.294800 -0.403013 0.829510
v -0.302612 -0.443918 0.805467
v -0.844596 -0.465427 -0.028025
v -0.844596 -0.465427 0.028025
v -0.868435 -0.417748 0.045345
v -0.883169 -0.388279 0.000000
v -0.868435 -0.417748 -0.045345
v -0.846927 -0.469199 0.000000
v -0.878654 -0.439329 -0.000000
v -0.859567 -0.443918 0.038902
v -0.880019 -0.403013 0.024043
v -0.880019 -0.403013 -0.024043
v -0.859567 -0.443918 -0.038902
v -0.234334 -0.465427 -0.811910
v -0.287641 -0.465427 -0.794590
v -0.311481 -0.417748 -0.811910
v -0.272907 -0.388279 -0.839935
v -0.225228 -0.417748 -0.839935
v -0.261708 -0.469199 -0.805467
v -0.271512 -0.439329 -0.835641
v -0.302612 -0.443918 -0.805467
v -0.294800 -0.403013 -0.829510
v -0.249068 -0.403013 -0.844369
v -0.228616 -0.443918 -0.829510
v 0.729228 -0.417748 -0.473759
v 0.699760 -0.465427 -0.473759
v 0.666815 -0.465427 -0.519104
v 0.675921 -0.417748 -0.547129
v 0.714494 -0.388280 -0.519104
v 0.718266 -0.443918 -0.473759
v 0.710841 -0.439329 -0.516450
v 0.685174 -0.469199 -0.497802
v 0.672533 -0.443918 -0.536704
v 0.697814 -0.403014 -0.536704
v 0.726078 -0.403014 -0.497802
v 0.225228 0.417748 0.839935
v 0.272907 0.388279 0.839935
v 0.311481 0.417748 0.811910
v 0.287641 0.465427 0.794590
v 0.234334 0.465427 0.811910
v 0.249068 0.403013 0.844369
v 0.271512 0.439329 0.835641
v 0.294800 0.403013 0.829510
v 0.302612 0.443918 0.805467
v 0.261708 0.469199 0.805467
v 0.228616 0.443918 0.829510
v -0.729228 0.417748 0.473759
v -0.714494 0.388280 0.519104
v -0.675921 0.417748 0.547129
v -0.666815 0.465427 0.519104
v -0.699760 0.465427 0.473759
v -0.726078 0.403014 0.497802
v -0.710841 0.439329 0.516450
v -0.697814 0.403014 0.536704
v -0.672533 0.443918 0.536704
v -0.685174 0.469199 0.497802
v -0.718266 0.443918 0.473759
v -0.675921 0.417748 -0.547129
v -0.714494 0.388280 -0.519104
v -0.729228 0.417748 -0.473759
v -0.699760 0.465427 -0.473759
v -0.666815 0.465427 -0.519104
v -0.697814 0.403014 -0.536704
v -0.710841 0.439329 -0.516450
v -0.726078 0.403014 -0.497802
v -0.718266 0.443918 -0.473759
v -0.685174 0.469199 -0.497802
v -0.672533 0.443918 -0.536704
v 0.311481 0.417748 -0.811910
v 0.272907 0.388279 -0.839935
v 0.225228 0.417748 -0.839935
v 0.234334 0.465427 -0.811910
v 0.287641 0.465427 -0.794590
v 0.294800 0.403013 -0.829510
v 0.271512 0.439329 -0.835641
v 0.249068 0.403014 -0.844369
v 0.228616 0.443918 -0.829510
v 0.261708 0.469199 -0.805467
v 0.302612 0.443918 -0.805467
v 0.868435 0.417748 0.045345
v 0.883169 0.388279 0.000000
v 0.868435 0.417748 -0.045345
v 0.844596 0.465427 -0.028025
v 0.844596 0.465427 0.028025
v 0.880019 0.403013 0.024043
v 0.878654 0.439329 -0.000000
v 0.880019 0.403013 -0.024043
v 0.859567 0.443918 -0.038902
v 0.846927 0.469199 0.000000
v 0.859567 0.443918 0.038902
v -0.014734 0.963576 0.045346
v 0.038573 0.963576 0.028025
v 0.038573 0.963576 -0.028025
v -0.014734 0.963576 -0.045346
v -0.047680 0.963576 0.000000
v 0.012640 0.967348 0.038902
v -0.000000 0.982367 0.000000
v 0.040904 0.967348 0.000000
v 0.012640 0.967348 -0.038902
v -0.033093 0.967348 -0.024043
v -0.033093 0.967348 0.024043
vt 0.993480 0.602761
vt 0.993358 0.746572
vt 0.868874 0.674555
vt 0.653630 0.296185
vt 0.778237 0.224388
vt 0.778114 0.368206
vt 0.564322 0.767421
vt 0.564194 0.911240
vt 0.439715 0.839218
vt 0.582725 0.839067
vt 0.707331 0.767271
vt 0.707206 0.911088
vt 0.707389 0.154193
vt 0.582905 0.082181
vt 0.707516 0.010379
vt 0.564380 0.154199
vt 0.439891 0.082175
vt 0.564509 0.010375
vt 0.850528 0.154054
vt 0.725997 0.082038
vt 0.850635 0.010264
vt 0.582721 0.674554
vt 0.707334 0.602754
vt 0.707209 0.746574
vt 0.850451 0.767013
vt 0.850345 0.910796
vt 0.725812 0.838784
vt 0.850452 0.602646
vt 0.850346 0.746427
vt 0.725815 0.674414
vt 0.439709 0.510193
vt 0.564319 0.438394
vt 0.564198 0.582208
vt 0.421186 0.582065
vt 0.296654 0.510052
vt 0.421294 0.438279
vt 0.850475 0.582065
vt 0.725943 0.510049
vt 0.850582 0.438275
vt 0.707440 0.438282
vt 0.707336 0.582062
vt 0.582806 0.510048
vt 0.136368 0.796212
vt 0.011882 0.724198
vt 0.136497 0.652398
vt 0.921118 0.368201
vt 0.796640 0.296184
vt 0.921247 0.224385
vt 0.011889 0.888706
vt 0.136492 0.816913
vt 0.136365 0.960726
vt 0.421185 0.767273
vt 0.421060 0.911089
vt 0.296577 0.839070
vt 0.564322 0.602907
vt 0.564197 0.746726
vt 0.439712 0.674708
vt 0.421056 0.746575
vt 0.427269 0.749523
vt 0.426836 0.756461
vt 0.420621 0.753348
vt 0.647968 0.300088
vt 0.642177 0.296244
vt 0.647980 0.292417
vt 0.577064 0.842973
vt 0.571272 0.839129
vt 0.577075 0.835302
vt 0.999567 0.749521
vt 0.999134 0.756458
vt 0.992919 0.753346
vt 0.563769 0.760570
vt 0.569994 0.757476
vt 0.570406 0.764415
vt 0.992930 0.595905
vt 0.999155 0.592811
vt 0.999567 0.599750
vt 0.856738 0.156997
vt 0.856306 0.163934
vt 0.850090 0.160823
vt 0.570589 0.157144
vt 0.570155 0.164081
vt 0.563940 0.160969
vt 0.577246 0.086087
vt 0.571455 0.082243
vt 0.577257 0.078416
vt 0.570406 0.914186
vt 0.569973 0.921124
vt 0.563757 0.918011
vt 0.296575 0.674562
vt 0.290915 0.678465
vt 0.285124 0.674621
vt 0.290927 0.670795
vt 0.434054 0.843124
vt 0.428262 0.839279
vt 0.434066 0.835453
vt 0.713601 0.157142
vt 0.713167 0.164080
vt 0.706952 0.160968
vt 0.577063 0.678457
vt 0.571272 0.674613
vt 0.577075 0.670787
vt 0.563770 0.431539
vt 0.569994 0.428446
vt 0.570407 0.435384
vt 0.777684 0.217532
vt 0.783909 0.214439
vt 0.784321 0.221378
vt 0.421185 0.602758
vt 0.420632 0.595907
vt 0.426857 0.592813
vt 0.427269 0.599752
vt 0.434053 0.514097
vt 0.428262 0.510253
vt 0.434065 0.506427
vt 0.849960 0.760255
vt 0.856143 0.757178
vt 0.856557 0.764072
vt 0.290955 0.513906
vt 0.285124 0.510040
vt 0.290962 0.506185
vt 0.706780 0.760417
vt 0.713005 0.757323
vt 0.713417 0.764262
vt 0.784321 0.371152
vt 0.783887 0.378088
vt 0.777672 0.374976
vt 0.427397 0.585010
vt 0.426964 0.591947
vt 0.420748 0.588836
vt 0.849961 0.595888
vt 0.856144 0.592811
vt 0.856557 0.599705
vt 0.720244 0.513904
vt 0.714413 0.510038
vt 0.720251 0.506184
vt 0.720298 0.085892
vt 0.714467 0.082027
vt 0.720305 0.078172
vt 0.863214 0.678461
vt 0.857423 0.674616
vt 0.863226 0.670790
vt 0.713417 0.914033
vt 0.712983 0.920970
vt 0.706768 0.917858
vt 0.856685 0.585010
vt 0.856252 0.591947
vt 0.850037 0.588836
vt 0.706951 0.431522
vt 0.713133 0.428446
vt 0.713547 0.435339
vt 0.706782 0.595904
vt 0.713007 0.592811
vt 0.713419 0.599750
vt 0.706963 0.003526
vt 0.713188 0.000433
vt 0.713601 0.007372
vt 0.563952 0.003526
vt 0.570177 0.000433
vt 0.570589 0.007372
vt 0.142580 0.799162
vt 0.142146 0.806099
vt 0.135931 0.802987
vt 0.790978 0.300090
vt 0.785187 0.296245
vt 0.790990 0.292419
vt 0.856557 0.913743
vt 0.856124 0.920680
vt 0.849909 0.917569
vt 0.570407 0.585158
vt 0.569973 0.592096
vt 0.563758 0.588983
vt 0.713419 0.749520
vt 0.712985 0.756457
vt 0.706770 0.753345
vt 0.927330 0.371150
vt 0.926896 0.378088
vt 0.920681 0.374975
vt 0.135940 0.810058
vt 0.142165 0.806965
vt 0.142577 0.813904
vt 0.856557 0.749375
vt 0.856125 0.756313
vt 0.849909 0.753201
vt 0.420800 0.431523
vt 0.426983 0.428446
vt 0.427397 0.435340
vt 0.720116 0.842637
vt 0.714285 0.838772
vt 0.720123 0.834917
vt 0.006224 0.892613
vt 0.000433 0.888769
vt 0.006236 0.884942
vt 0.427268 0.914036
vt 0.426835 0.920973
vt 0.420620 0.917861
vt 0.713547 0.585008
vt 0.713114 0.591946
vt 0.706899 0.588835
vt 0.850089 0.431523
vt 0.856271 0.428446
vt 0.856685 0.435340
vt 0.720116 0.678268
vt 0.714285 0.674403
vt 0.720123 0.670548
vt 0.420632 0.760420
vt 0.426856 0.757326
vt 0.427268 0.764265
vt 0.570406 0.749674
vt 0.569973 0.756611
vt 0.563758 0.753499
vt 0.434234 0.086080
vt 0.428443 0.082236
vt 0.434246 0.078410
vt 0.850141 0.003510
vt 0.856325 0.000433
vt 0.856738 0.007327
vt 0.577103 0.513902
vt 0.571272 0.510037
vt 0.577111 0.506182
vt 0.563769 0.596055
vt 0.569994 0.592961
vt 0.570406 0.599900
vt 0.006224 0.728102
vt 0.000433 0.724258
vt 0.006236 0.720431
vt 0.920692 0.217533
vt 0.926917 0.214439
vt 0.927330 0.221379
vt 0.135942 0.645547
vt 0.142167 0.642453
vt 0.142580 0.649393
vt 0.434054 0.678613
vt 0.428262 0.674769
vt 0.434065 0.670942
vt 0.290915 0.842976
vt 0.285124 0.839132
vt 0.290927 0.835305
vt 0.142577 0.963675
vt 0.142144 0.970611
vt 0.135929 0.967499
vn 0.6071 -0.7947 0.0000
vn -0.4911 -0.7947 -0.3568
vn 0.1876 -0.7947 0.5774
vn 0.1876 -0.7947 -0.5774
vn 0.3035 -0.1876 0.9342
vn 0.7946 0.1876 0.5774
vn 0.9822 -0.1876 0.0000
vn -0.3035 0.1876 0.9342
vn -0.9822 0.1876 0.0000
vn -0.3035 0.1876 -0.9342
vn -0.7946 -0.1876 0.5774
vn -0.7946 -0.1876 -0.5774
vn 0.3035 -0.1876 -0.9342
vn 0.7946 0.1876 -0.5774
vn 0.4911 0.7947 0.3568
vn -0.1876 0.7947 0.5774
vn -0.6071 0.7947 0.0000
vn -0.1876 0.7947 -0.5774
vn 0.4911 0.7947 -0.3568
vn -0.2966 -0.9304 0.2155
vn -0.2966 -0.9304 -0.2155
vn 0.1133 -0.9304 -0.3487
vn 0.3667 -0.9304 0.0000
vn 0.1133 -0.9304 0.3487
vn 0.6926 -0.6814 0.2368
vn 0.9192 -0.3147 0.2368
vn 0.8059 -0.0881 0.5855
vn 0.5092 -0.3147 0.8010
vn 0.4392 -0.6814 0.5855
vn -0.4211 -0.6814 0.5986
vn -0.0112 -0.6814 0.7318
vn 0.0589 -0.3147 0.9474
vn -0.3078 -0.0881 0.9474
vn -0.6045 -0.3147 0.7318
vn -0.6995 -0.6814 -0.2155
vn -0.6995 -0.6814 0.2155
vn -0.8828 -0.3147 0.3487
vn -0.9961 -0.0881 0.0000
vn -0.8828 -0.3147 -0.3487
vn -0.0112 -0.6814 -0.7318
vn -0.4211 -0.6814 -0.5986
vn -0.6044 -0.3147 -0.7318
vn -0.3078 -0.0881 -0.9474
vn 0.0589 -0.3147 -0.9474
vn 0.9192 -0.3147 -0.2368
vn 0.6926 -0.6814 -0.2368
vn 0.4392 -0.6814 -0.5855
vn 0.5092 -0.3147 -0.8010
vn 0.8059 -0.0881 -0.5855
vn -0.0589 0.3147 0.9474
vn 0.3078 0.0881 0.9474
vn 0.6045 0.3147 0.7318
vn 0.4211 0.6814 0.5986
vn 0.0112 0.6814 0.7318
vn -0.9192 0.3147 0.2368
vn -0.8059 0.0881 0.5855
vn -0.5092 0.3147 0.8010
vn -0.4392 0.6814 0.5855
vn -0.6926 0.6814 0.2368
vn -0.5092 0.3147 -0.8010
vn -0.8059 0.0881 -0.5855
vn -0.9192 0.3147 -0.2368
vn -0.6926 0.6814 -0.2368
vn -0.4392 0.6814 -0.5855
vn 0.6044 0.3147 -0.7318
vn 0.3078 0.0881 -0.9474
vn -0.0589 0.3147 -0.9474
vn 0.0112 0.6814 -0.7318
vn 0.4211 0.6814 -0.5986
vn 0.8828 0.3147 0.3487
vn 0.9961 0.0881 -0.0000
vn 0.8828 0.3147 -0.3487
vn 0.6995 0.6814 -0.2155
vn 0.6995 0.6814 0.2155
vn -0.1133 0.9304 0.3487
vn 0.2966 0.9304 0.2155
vn 0.2966 0.9304 -0.2155
vn -0.1133 0.9304 -0.3487
vn -0.3667 0.9304 0.0000
vn -0.3091 -0.8402 0.4456
vn -0.0118 -0.8402 0.5422
vn 0.5120 -0.8402 0.1788
vn 0.3282 -0.8402 0.4317
vn 0.2850 -0.3863 0.8772
vn 0.2343 -0.6522 0.7209
vn 0.9224 -0.3863 0.0000
vn 0.7580 -0.6522 0.0000
vn 0.3282 -0.8402 -0.4317
vn 0.5120 -0.8402 -0.1788
vn -0.5193 -0.8402 -0.1563
vn -0.5193 -0.8402 0.1563
vn -0.7462 -0.3863 0.5422
vn -0.6133 -0.6522 0.4456
vn -0.0118 -0.8402 -0.5422
vn -0.3091 -0.8402 -0.4456
vn -0.7462 -0.3863 -0.5422
vn -0.6133 -0.6522 -0.4456
vn 0.2850 -0.3863 -0.8772
vn 0.2343 -0.6522 -0.7209
vn 0.8983 0.0822 0.4317
vn 0.9804 -0.0822 0.1788
vn 0.8983 0.0822 -0.4317
vn 0.9804 -0.0822 -0.1788
vn -0.1329 0.0822 0.9877
vn 0.1329 -0.0822 0.9877
vn 0.6881 0.0822 0.7209
vn 0.4730 -0.0822 0.8772
vn -0.9804 0.0822 0.1788
vn -0.8983 -0.0821 0.4317
vn -0.4730 0.0822 0.8772
vn -0.6881 -0.0822 0.7209
vn -0.4730 0.0822 -0.8772
vn -0.6881 -0.0822 -0.7209
vn -0.9804 0.0822 -0.1788
vn -0.8983 -0.0822 -0.4317
vn 0.6881 0.0822 -0.7209
vn 0.4730 -0.0822 -0.8772
vn -0.1329 0.0822 -0.9877
vn 0.1329 -0.0822 -0.9877
vn 0.6133 0.6522 0.4456
vn 0.7462 0.3863 0.5422
vn -0.2343 0.6522 0.7209
vn -0.2850 0.3863 0.8772
vn -0.7580 0.6522 0.0000
vn -0.9224 0.3863 0.0000
vn -0.2343 0.6522 -0.7209
vn -0.2850 0.3863 -0.8772
vn 0.6133 0.6522 -0.4456
vn 0.7462 0.3863 -0.5422
vn 0.0118 0.8402 0.5422
vn 0.3091 0.8402 0.4456
vn 0.5193 0.8402 -0.1563
vn 0.5193 0.8402 0.1563
vn -0.5120 0.8402 0.1788
vn -0.3282 0.8402 0.4317
vn -0.3282 0.8402 -0.4317
vn -0.5120 0.8402 -0.1788
vn 0.3091 0.8402 -0.4456
vn 0.0118 0.8402 -0.5422
vn -0.4911 -0.7947 0.3568
usemtl Material
s off
f 12/1/1 4/2/1 57/3/1
f 2/4/2 34/5/2 46/6/2
f 5/7/3 16/8/3 24/9/3
f 3/10/4 45/11/4 58/12/4
f 25/13/5 15/14/5 68/15/5
f 14/16/6 111/17/6 69/18/6
f 13/19/7 56/20/7 112/21/7
f 26/22/8 67/23/8 80/24/8
f 37/25/9 78/26/9 91/27/9
f 48/28/10 89/29/10 102/30/10
f 36/31/11 27/32/11 79/33/11
f 47/34/12 38/35/12 90/36/12
f 59/37/13 49/38/13 101/39/13
f 60/40/14 100/41/14 113/42/14
f 70/43/15 115/44/15 123/45/15
f 81/46/16 71/47/16 122/48/16
f 92/49/17 82/50/17 126/51/17
f 103/52/18 93/53/18 125/54/18
f 114/55/19 104/56/19 124/57/19
f 1/58/20 6/59/20 7/60/20 11/61/20
f 2/4/21 8/62/21 7/63/21 6/64/21
f 3/10/22 9/65/22 7/66/22 8/67/22
f 4/2/23 10/68/23 7/69/23 9/70/23
f 5/7/24 11/71/24 7/72/24 10/73/24
f 12/1/25 17/74/25 18/75/25 22/76/25
f 13/19/26 19/77/26 18/78/26 17/79/26
f 14/16/27 20/80/27 18/81/27 19/82/27
f 15/14/28 21/83/28 18/84/28 20/85/28
f 16/8/29 22/86/29 18/87/29 21/88/29
f 23/89/30 28/90/30 29/91/30 33/92/30
f 24/9/31 30/93/31 29/94/31 28/95/31
f 25/13/32 31/96/32 29/97/32 30/98/32
f 26/22/33 32/99/33 29/100/33 31/101/33
f 27/32/34 33/102/34 29/103/34 32/104/34
f 34/5/35 39/105/35 40/106/35 44/107/35
f 35/108/36 41/109/36 40/110/36 39/111/36
f 36/31/37 42/112/37 40/113/37 41/114/37
f 37/25/38 43/115/38 40/116/38 42/117/38
f 38/35/39 44/118/39 40/119/39 43/120/39
f 45/11/40 50/121/40 51/122/40 55/123/40
f 46/6/41 52/124/41 51/125/41 50/126/41
f 47/34/42 53/127/42 51/128/42 52/129/42
f 48/28/43 54/130/43 51/131/43 53/132/43
f 49/38/44 55/133/44 51/134/44 54/135/44
f 56/20/45 61/136/45 62/137/45 66/138/45
f 57/3/46 63/139/46 62/140/46 61/141/46
f 58/12/47 64/142/47 62/143/47 63/144/47
f 59/37/48 65/145/48 62/146/48 64/147/48
f 60/40/49 66/148/49 62/149/49 65/150/49
f 67/23/50 72/151/50 73/152/50 77/153/50
f 68/15/51 74/154/51 73/155/51 72/156/51
f 69/18/52 75/157/52 73/158/52 74/159/52
f 70/43/53 76/160/53 73/161/53 75/162/53
f 71/47/54 77/163/54 73/164/54 76/165/54
f 78/26/55 83/166/55 84/167/55 88/168/55
f 79/33/56 85/169/56 84/170/56 83/171/56
f 80/24/57 86/172/57 84/173/57 85/174/57
f 81/46/58 87/175/58 84/176/58 86/177/58
f 82/50/59 88/178/59 84/179/59 87/180/59
f 89/29/60 94/181/60 95/182/60 99/183/60
f 90/36/61 96/184/61 95/185/61 94/186/61
f 91/27/62 97/187/62 95/188/62 96/189/62
f 92/49/63 98/190/63 95/191/63 97/192/63
f 93/53/64 99/193/64 95/194/64 98/195/64
f 100/41/65 105/196/65 106/197/65 110/198/65
f 101/39/66 107/199/66 106/200/66 105/201/66
f 102/30/67 108/202/67 106/203/67 107/204/67
f 103/52/68 109/205/68 106/206/68 108/207/68
f 104/56/69 110/208/69 106/209/69 109/210/69
f 111/17/70 116/211/70 117/212/70 121/213/70
f 112/21/71 118/214/71 117/215/71 116/216/71
f 113/42/72 119/217/72 117/218/72 118/219/72
f 114/55/73 120/220/73 117/221/73 119/222/73
f 115/44/74 121/223/74 117/224/74 120/225/74
f 122/48/75 127/226/75 128/227/75 132/228/75
f 123/45/76 129/229/76 128/230/76 127/231/76
f 124/57/77 130/232/77 128/233/77 129/234/77
f 125/54/78 131/235/78 128/236/78 130/237/78
f 126/51/79 132/238/79 128/239/79 131/240/79
f 23/89/80 1/58/80 11/61/80 28/90/80
f 28/95/81 11/71/81 5/7/81 24/9/81
f 4/2/82 12/1/82 22/76/82 10/68/82
f 10/73/83 22/86/83 16/8/83 5/7/83
f 15/14/84 25/13/84 30/98/84 21/83/84
f 21/88/85 30/93/85 24/9/85 16/8/85
f 56/20/86 13/19/86 17/79/86 61/136/86
f 61/141/87 17/74/87 12/1/87 57/3/87
f 3/10/88 58/12/88 63/144/88 9/65/88
f 9/70/89 63/139/89 57/3/89 4/2/89
f 34/5/90 2/4/90 6/64/90 39/105/90
f 39/111/91 6/59/91 1/58/91 35/108/91
f 27/32/92 36/31/92 41/114/92 33/102/92
f 33/92/93 41/109/93 35/108/93 23/89/93
f 45/11/94 3/10/94 8/67/94 50/121/94
f 50/126/95 8/62/95 2/4/95 46/6/95
f 38/35/96 47/34/96 52/129/96 44/118/96
f 44/107/97 52/124/97 46/6/97 34/5/97
f 49/38/98 59/37/98 64/147/98 55/133/98
f 55/123/99 64/142/99 58/12/99 45/11/99
f 111/17/100 14/16/100 19/82/100 116/211/100
f 116/216/101 19/77/101 13/19/101 112/21/101
f 60/40/102 113/42/102 118/219/102 66/148/102
f 66/138/103 118/214/103 112/21/103 56/20/103
f 67/23/104 26/22/104 31/101/104 72/151/104
f 72/156/105 31/96/105 25/13/105 68/15/105
f 14/16/106 69/18/106 74/159/106 20/80/106
f 20/85/107 74/154/107 68/15/107 15/14/107
f 78/26/108 37/25/108 42/117/108 83/166/108
f 83/171/109 42/112/109 36/31/109 79/33/109
f 26/22/110 80/24/110 85/174/110 32/99/110
f 32/104/111 85/169/111 79/33/111 27/32/111
f 89/29/112 48/28/112 53/132/112 94/181/112
f 94/186/113 53/127/113 47/34/113 90/36/113
f 37/25/114 91/27/114 96/189/114 43/115/114
f 43/120/115 96/184/115 90/36/115 38/35/115
f 100/41/116 60/40/116 65/150/116 105/196/116
f 105/201/117 65/145/117 59/37/117 101/39/117
f 48/28/118 102/30/118 107/204/118 54/130/118
f 54/135/119 107/199/119 101/39/119 49/38/119
f 115/44/120 70/43/120 75/162/120 121/223/120
f 121/213/121 75/157/121 69/18/121 111/17/121
f 71/47/122 81/46/122 86/177/122 77/163/122
f 77/153/123 86/172/123 80/24/123 67/23/123
f 82/50/124 92/49/124 97/192/124 88/178/124
f 88/168/125 97/187/125 91/27/125 78/26/125
f 93/53/126 103/52/126 108/207/126 99/193/126
f 99/183/127 108/202/127 102/30/127 89/29/127
f 104/56/128 114/55/128 119/222/128 110/208/128
f 110/198/129 119/217/129 113/42/129 100/41/129
f 122/48/130 71/47/130 76/165/130 127/226/130
f 127/231/131 76/160/131 70/43/131 123/45/131
f 114/55/132 124/57/132 129/234/132 120/220/132
f 120/225/133 129/229/133 123/45/133 115/44/133
f 126/51/134 82/50/134 87/180/134 132/238/134
f 132/228/135 87/175/135 81/46/135 122/48/135
f 125/54/136 93/53/136 98/195/136 131/235/136
f 131/240/137 98/190/137 92/49/137 126/51/137
f 124/57/138 104/56/138 109/210/138 130/232/138
f 130/237/139 109/205/139 103/52/139 125/54/139
f 1/58/140 23/89/140 35/108/140
